<?xml version="1.0" encoding="UTF-8" standalone="no"?>
<!DOCTYPE svg PUBLIC "-//W3C//DTD SVG 1.1//EN"
 "http://www.w3.org/Graphics/SVG/1.1/DTD/svg11.dtd">
<!-- Generated by graphviz version 2.40.1 (20161225.0304)
 -->
<!-- Title: state transitions Pages: 1 -->
<svg width="974pt" height="448pt"
 viewBox="0.00 0.00 974.00 448.00" xmlns="http://www.w3.org/2000/svg" xmlns:xlink="http://www.w3.org/1999/xlink">
<g id="graph0" class="graph" transform="scale(1 1) rotate(0) translate(4 444)">
<title>state transitions</title>
<polygon fill="#ffffff" stroke="transparent" points="-4,4 -4,-444 970,-444 970,4 -4,4"/>
<g id="clust1" class="cluster state regular">
<title>cluster_estado</title>
<path fill="none" stroke="#000000" stroke-width="2" d="M20,-8C20,-8 946,-8 946,-8 952,-8 958,-14 958,-20 958,-20 958,-420 958,-420 958,-426 952,-432 946,-432 946,-432 20,-432 20,-432 14,-432 8,-426 8,-420 8,-420 8,-20 8,-20 8,-14 14,-8 20,-8"/>
<text text-anchor="start" x="464.991" y="-413.2" font-family="Helvetica,sans-Serif" font-size="12.00" fill="#000000">estado</text>
</g>
<!-- estado -->
<!-- S_REPOSO -->
<g id="node2" class="node state regular">
<title>S_REPOSO</title>
<polygon fill="#ffffff" fill-opacity="0.003922" stroke="transparent" stroke-width="2" points="568,-394 480,-394 480,-358 568,-358 568,-394"/>
<text text-anchor="start" x="490.9928" y="-372.2" font-family="Helvetica,sans-Serif" font-size="12.00" fill="#000000">S_REPOSO</text>
<path fill="none" stroke="#000000" stroke-width="2" d="M492.3333,-359C492.3333,-359 555.6667,-359 555.6667,-359 561.3333,-359 567,-364.6667 567,-370.3333 567,-370.3333 567,-381.6667 567,-381.6667 567,-387.3333 561.3333,-393 555.6667,-393 555.6667,-393 492.3333,-393 492.3333,-393 486.6667,-393 481,-387.3333 481,-381.6667 481,-381.6667 481,-370.3333 481,-370.3333 481,-364.6667 486.6667,-359 492.3333,-359"/>
</g>
<!-- S_DECIDIR -->
<g id="node3" class="node state regular">
<title>S_DECIDIR</title>
<polygon fill="#ffffff" fill-opacity="0.003922" stroke="transparent" stroke-width="2" points="519.5,-264 434.5,-264 434.5,-228 519.5,-228 519.5,-264"/>
<text text-anchor="start" x="445.5014" y="-242.2" font-family="Helvetica,sans-Serif" font-size="12.00" fill="#000000">S_DECIDIR</text>
<path fill="none" stroke="#000000" stroke-width="2" d="M446.8333,-229C446.8333,-229 507.1667,-229 507.1667,-229 512.8333,-229 518.5,-234.6667 518.5,-240.3333 518.5,-240.3333 518.5,-251.6667 518.5,-251.6667 518.5,-257.3333 512.8333,-263 507.1667,-263 507.1667,-263 446.8333,-263 446.8333,-263 441.1667,-263 435.5,-257.3333 435.5,-251.6667 435.5,-251.6667 435.5,-240.3333 435.5,-240.3333 435.5,-234.6667 441.1667,-229 446.8333,-229"/>
</g>
<!-- S_REPOSO&#45;&gt;S_DECIDIR -->
<g id="edge1" class="edge transition">
<title>S_REPOSO&#45;&gt;S_DECIDIR</title>
<path fill="none" stroke="#000000" d="M505.3092,-357.6674C501.0816,-352.6289 497.0203,-346.913 494.221,-341 484.236,-319.9085 480.0182,-293.6614 478.2479,-274.1039"/>
<polygon fill="#000000" stroke="#000000" points="481.7286,-273.7143 477.4951,-264.0021 474.748,-274.2346 481.7286,-273.7143"/>
<text text-anchor="middle" x="495.3895" y="-308" font-family="Helvetica,sans-Serif" font-size="10.00" fill="#000000"> </text>
</g>
<!-- S_DECIDIR&#45;&gt;S_REPOSO -->
<g id="edge7" class="edge transition">
<title>S_DECIDIR&#45;&gt;S_REPOSO</title>
<path fill="none" stroke="#000000" d="M489.0962,-264.0273C492.3028,-269.3379 495.5499,-275.2656 498,-281 507.2399,-302.6261 514.0559,-328.4344 518.3856,-347.6897"/>
<polygon fill="#000000" stroke="#000000" points="515.0033,-348.6085 520.5349,-357.6446 521.8457,-347.1312 515.0033,-348.6085"/>
<text text-anchor="start" x="516" y="-332" font-family="Helvetica,sans-Serif" font-size="10.00" fill="#000000">not (abs_N = &#39;0&#39; AND vis_N = &#39;0&#39;) &#160;&#160;</text>
<text text-anchor="start" x="516" y="-320" font-family="Helvetica,sans-Serif" font-size="10.00" fill="#000000">not (abs_E = &#39;0&#39; AND vis_E = &#39;0&#39;) &#160;&#160;</text>
<text text-anchor="start" x="516" y="-308" font-family="Helvetica,sans-Serif" font-size="10.00" fill="#000000">not (abs_S = &#39;0&#39; AND vis_S = &#39;0&#39;) &#160;&#160;</text>
<text text-anchor="start" x="516" y="-296" font-family="Helvetica,sans-Serif" font-size="10.00" fill="#000000">not (abs_W = &#39;0&#39; AND vis_W = &#39;0&#39;) &#160;&#160;</text>
<text text-anchor="start" x="516" y="-284" font-family="Helvetica,sans-Serif" font-size="10.00" fill="#000000">not (sp &gt; 0) &#160;&#160;</text>
</g>
<!-- S_GIRAR -->
<g id="node4" class="node state regular">
<title>S_GIRAR</title>
<polygon fill="#ffffff" fill-opacity="0.003922" stroke="transparent" stroke-width="2" points="514,-134 440,-134 440,-98 514,-98 514,-134"/>
<text text-anchor="start" x="450.6642" y="-112.2" font-family="Helvetica,sans-Serif" font-size="12.00" fill="#000000">S_GIRAR</text>
<path fill="none" stroke="#000000" stroke-width="2" d="M452.3333,-99C452.3333,-99 501.6667,-99 501.6667,-99 507.3333,-99 513,-104.6667 513,-110.3333 513,-110.3333 513,-121.6667 513,-121.6667 513,-127.3333 507.3333,-133 501.6667,-133 501.6667,-133 452.3333,-133 452.3333,-133 446.6667,-133 441,-127.3333 441,-121.6667 441,-121.6667 441,-110.3333 441,-110.3333 441,-104.6667 446.6667,-99 452.3333,-99"/>
</g>
<!-- S_DECIDIR&#45;&gt;S_GIRAR -->
<g id="edge2" class="edge transition">
<title>S_DECIDIR&#45;&gt;S_GIRAR</title>
<path fill="none" stroke="#000000" d="M434.2673,-245.6569C332.1737,-244.394 80.6647,-238.4955 55.357,-211 37.2976,-191.3794 37.2976,-170.6206 55.357,-151 80.2753,-123.9276 324.4871,-117.7927 429.4496,-116.4048"/>
<polygon fill="#000000" stroke="#000000" points="429.8006,-119.9008 439.7567,-116.2779 429.7143,-112.9013 429.8006,-119.9008"/>
<text text-anchor="start" x="55" y="-178" font-family="Helvetica,sans-Serif" font-size="10.00" fill="#000000">abs_N = &#39;0&#39; AND vis_N = &#39;0&#39; &#160;&#160;</text>
</g>
<!-- S_DECIDIR&#45;&gt;S_GIRAR -->
<g id="edge3" class="edge transition">
<title>S_DECIDIR&#45;&gt;S_GIRAR</title>
<path fill="none" stroke="#000000" d="M434.368,-242.9306C367.5891,-237.6848 244.5431,-226.0837 231.457,-211 213.9818,-190.8573 213.9818,-171.1427 231.457,-151 244.2564,-136.2468 362.2504,-124.8251 429.8998,-119.4233"/>
<polygon fill="#000000" stroke="#000000" points="430.2032,-122.9103 439.899,-118.6393 429.656,-115.9317 430.2032,-122.9103"/>
<text text-anchor="start" x="231" y="-178" font-family="Helvetica,sans-Serif" font-size="10.00" fill="#000000">abs_E = &#39;0&#39; AND vis_E = &#39;0&#39; &#160;&#160;</text>
</g>
<!-- S_DECIDIR&#45;&gt;S_GIRAR -->
<g id="edge4" class="edge transition">
<title>S_DECIDIR&#45;&gt;S_GIRAR</title>
<path fill="none" stroke="#000000" d="M434.2942,-233.9509C423.35,-228.7215 412.8699,-221.3406 406.457,-211 392.4025,-188.3376 392.4025,-173.6624 406.457,-151 412.1358,-141.843 421.0041,-135.007 430.5596,-129.9307"/>
<polygon fill="#000000" stroke="#000000" points="432.2753,-132.9922 439.8501,-125.5846 429.3092,-126.6516 432.2753,-132.9922"/>
<text text-anchor="start" x="406" y="-178" font-family="Helvetica,sans-Serif" font-size="10.00" fill="#000000">abs_S = &#39;0&#39; AND vis_S = &#39;0&#39; &#160;&#160;</text>
</g>
<!-- S_DECIDIR&#45;&gt;S_GIRAR -->
<g id="edge5" class="edge transition">
<title>S_DECIDIR&#45;&gt;S_GIRAR</title>
<path fill="none" stroke="#000000" d="M519.7198,-229.336C527.0287,-224.5344 533.6555,-218.5016 538,-211 551.3644,-187.9239 551.3644,-174.0761 538,-151 534.2559,-144.5351 528.8168,-139.1612 522.7069,-134.726"/>
<polygon fill="#000000" stroke="#000000" points="524.3761,-131.6403 514.0555,-129.2456 520.6302,-137.5537 524.3761,-131.6403"/>
<text text-anchor="start" x="548" y="-178" font-family="Helvetica,sans-Serif" font-size="10.00" fill="#000000">abs_W = &#39;0&#39; AND vis_W = &#39;0&#39; &#160;&#160;</text>
</g>
<!-- S_DECIDIR&#45;&gt;S_GIRAR -->
<g id="edge6" class="edge transition">
<title>S_DECIDIR&#45;&gt;S_GIRAR</title>
<path fill="none" stroke="#000000" d="M519.578,-241.9112C578.2992,-235.8364 678.1699,-223.7647 689,-211 706.2522,-190.666 706.2522,-171.334 689,-151 678.4702,-138.5893 583.7706,-126.8338 524.5562,-120.608"/>
<polygon fill="#000000" stroke="#000000" points="524.6068,-117.0946 514.2999,-119.5474 523.8868,-124.0575 524.6068,-117.0946"/>
<text text-anchor="start" x="701" y="-202" font-family="Helvetica,sans-Serif" font-size="10.00" fill="#000000">sp &gt; 0sp &gt; 0 &#160;&#160;</text>
<text text-anchor="start" x="701" y="-190" font-family="Helvetica,sans-Serif" font-size="10.00" fill="#000000">not (abs_N = &#39;0&#39; AND vis_N = &#39;0&#39;) &#160;&#160;</text>
<text text-anchor="start" x="701" y="-178" font-family="Helvetica,sans-Serif" font-size="10.00" fill="#000000">not (abs_E = &#39;0&#39; AND vis_E = &#39;0&#39;) &#160;&#160;</text>
<text text-anchor="start" x="701" y="-166" font-family="Helvetica,sans-Serif" font-size="10.00" fill="#000000">not (abs_S = &#39;0&#39; AND vis_S = &#39;0&#39;) &#160;&#160;</text>
<text text-anchor="start" x="701" y="-154" font-family="Helvetica,sans-Serif" font-size="10.00" fill="#000000">not (abs_W = &#39;0&#39; AND vis_W = &#39;0&#39;) &#160;&#160;</text>
</g>
<!-- S_AVANZAR -->
<g id="node5" class="node state regular">
<title>S_AVANZAR</title>
<polygon fill="#ffffff" fill-opacity="0.003922" stroke="transparent" stroke-width="2" points="649.5,-52 556.5,-52 556.5,-16 649.5,-16 649.5,-52"/>
<text text-anchor="start" x="567.8294" y="-30.2" font-family="Helvetica,sans-Serif" font-size="12.00" fill="#000000">S_AVANZAR</text>
<path fill="none" stroke="#000000" stroke-width="2" d="M568.8333,-17C568.8333,-17 637.1667,-17 637.1667,-17 642.8333,-17 648.5,-22.6667 648.5,-28.3333 648.5,-28.3333 648.5,-39.6667 648.5,-39.6667 648.5,-45.3333 642.8333,-51 637.1667,-51 637.1667,-51 568.8333,-51 568.8333,-51 563.1667,-51 557.5,-45.3333 557.5,-39.6667 557.5,-39.6667 557.5,-28.3333 557.5,-28.3333 557.5,-22.6667 563.1667,-17 568.8333,-17"/>
</g>
<!-- S_GIRAR&#45;&gt;S_AVANZAR -->
<g id="edge8" class="edge transition">
<title>S_GIRAR&#45;&gt;S_AVANZAR</title>
<path fill="none" stroke="#000000" d="M479.6276,-97.82C481.9143,-88.0928 486.1653,-76.5886 494.04,-69 502.1095,-61.2237 524.2245,-53.5046 546.4397,-47.3023"/>
<polygon fill="#000000" stroke="#000000" points="547.5197,-50.6361 556.2635,-44.6531 545.6971,-43.8776 547.5197,-50.6361"/>
<text text-anchor="start" x="494" y="-72" font-family="Helvetica,sans-Serif" font-size="10.00" fill="#000000">ori = dir_objetivo &#160;&#160;</text>
</g>
<!-- S_GIRAR&#45;&gt;S_AVANZAR -->
<g id="edge9" class="edge transition">
<title>S_GIRAR&#45;&gt;S_AVANZAR</title>
<path fill="none" stroke="#000000" d="M514.4711,-109.6554C534.7886,-104.6621 559.2902,-95.9498 577,-81 583.1726,-75.7894 588.1448,-68.7236 592.0223,-61.6547"/>
<polygon fill="#000000" stroke="#000000" points="595.402,-62.7096 596.6411,-52.1874 589.1107,-59.6402 595.402,-62.7096"/>
<text text-anchor="start" x="587" y="-72" font-family="Helvetica,sans-Serif" font-size="10.00" fill="#000000">not (ori = dir_objetivo) &#160;&#160;</text>
</g>
<!-- S_AVANZAR&#45;&gt;S_REPOSO -->
<g id="edge10" class="edge transition">
<title>S_AVANZAR&#45;&gt;S_REPOSO</title>
<path fill="none" stroke="#000000" d="M649.7514,-34.818C743.8074,-37.0882 947,-45.4162 947,-75 947,-311 947,-311 947,-311 947,-329.4403 692.5474,-358.3766 578.345,-370.435"/>
<polygon fill="#000000" stroke="#000000" points="577.651,-366.9886 568.0713,-371.5142 578.3823,-373.9503 577.651,-366.9886"/>
<text text-anchor="middle" x="948.3895" y="-178" font-family="Helvetica,sans-Serif" font-size="10.00" fill="#000000"> </text>
</g>
</g>
</svg>
