<?xml version="1.0" encoding="UTF-8" standalone="no"?>
<!DOCTYPE svg PUBLIC "-//W3C//DTD SVG 1.1//EN"
 "http://www.w3.org/Graphics/SVG/1.1/DTD/svg11.dtd">
<!-- Generated by graphviz version 2.40.1 (20161225.0304)
 -->
<!-- Title: state transitions Pages: 1 -->
<svg width="234pt" height="188pt"
 viewBox="0.00 0.00 234.00 188.00" xmlns="http://www.w3.org/2000/svg" xmlns:xlink="http://www.w3.org/1999/xlink">
<g id="graph0" class="graph" transform="scale(1 1) rotate(0) translate(4 184)">
<title>state transitions</title>
<polygon fill="#ffffff" stroke="transparent" points="-4,4 -4,-184 230,-184 230,4 -4,4"/>
<g id="clust1" class="cluster state regular">
<title>cluster_estado_siguiente</title>
<path fill="none" stroke="#000000" stroke-width="2" d="M20,-8C20,-8 206,-8 206,-8 212,-8 218,-14 218,-20 218,-20 218,-160 218,-160 218,-166 212,-172 206,-172 206,-172 20,-172 20,-172 14,-172 8,-166 8,-160 8,-160 8,-20 8,-20 8,-14 14,-8 20,-8"/>
<text text-anchor="start" x="67.6484" y="-153.2" font-family="Helvetica,sans-Serif" font-size="12.00" fill="#000000">estado_siguiente</text>
</g>
<!-- estado_siguiente -->
<!-- E_PAR -->
<g id="node2" class="node state regular">
<title>E_PAR</title>
<polygon fill="#ffffff" fill-opacity="0.003922" stroke="transparent" stroke-width="2" points="79.5,-134 18.5,-134 18.5,-98 79.5,-98 79.5,-134"/>
<text text-anchor="start" x="29.829" y="-112.2" font-family="Helvetica,sans-Serif" font-size="12.00" fill="#000000">E_PAR</text>
<path fill="none" stroke="#000000" stroke-width="2" d="M30.8333,-99C30.8333,-99 67.1667,-99 67.1667,-99 72.8333,-99 78.5,-104.6667 78.5,-110.3333 78.5,-110.3333 78.5,-121.6667 78.5,-121.6667 78.5,-127.3333 72.8333,-133 67.1667,-133 67.1667,-133 30.8333,-133 30.8333,-133 25.1667,-133 19.5,-127.3333 19.5,-121.6667 19.5,-121.6667 19.5,-110.3333 19.5,-110.3333 19.5,-104.6667 25.1667,-99 30.8333,-99"/>
</g>
<!-- E_PAR&#45;&gt;E_PAR -->
<g id="edge2" class="edge transition">
<title>E_PAR&#45;&gt;E_PAR</title>
<path fill="none" stroke="#000000" d="M79.7377,-120.856C91.6221,-121.0718 101.5,-119.4531 101.5,-116 101.5,-113.626 96.8311,-112.119 90.0512,-111.4792"/>
<polygon fill="#000000" stroke="#000000" points="89.8461,-107.9707 79.7377,-111.144 89.6187,-114.967 89.8461,-107.9707"/>
<text text-anchor="start" x="101.5" y="-113" font-family="Helvetica,sans-Serif" font-size="10.00" fill="#000000">not (DIGITO = &#39;1&#39;) &#160;&#160;</text>
</g>
<!-- E_IMPAR -->
<g id="node3" class="node state regular">
<title>E_IMPAR</title>
<polygon fill="#ffffff" fill-opacity="0.003922" stroke="transparent" stroke-width="2" points="98,-52 24,-52 24,-16 98,-16 98,-52"/>
<text text-anchor="start" x="34.6642" y="-30.2" font-family="Helvetica,sans-Serif" font-size="12.00" fill="#000000">E_IMPAR</text>
<path fill="none" stroke="#000000" stroke-width="2" d="M36.3333,-17C36.3333,-17 85.6667,-17 85.6667,-17 91.3333,-17 97,-22.6667 97,-28.3333 97,-28.3333 97,-39.6667 97,-39.6667 97,-45.3333 91.3333,-51 85.6667,-51 85.6667,-51 36.3333,-51 36.3333,-51 30.6667,-51 25,-45.3333 25,-39.6667 25,-39.6667 25,-28.3333 25,-28.3333 25,-22.6667 30.6667,-17 36.3333,-17"/>
</g>
<!-- E_PAR&#45;&gt;E_IMPAR -->
<g id="edge1" class="edge transition">
<title>E_PAR&#45;&gt;E_IMPAR</title>
<path fill="none" stroke="#000000" d="M51.0627,-97.6681C52.0972,-88.9671 53.43,-78.4326 54.845,-69 55.1796,-66.7692 55.5443,-64.4617 55.9234,-62.1448"/>
<polygon fill="#000000" stroke="#000000" points="59.3991,-62.5836 57.6314,-52.1373 52.4989,-61.4059 59.3991,-62.5836"/>
<text text-anchor="start" x="54" y="-72" font-family="Helvetica,sans-Serif" font-size="10.00" fill="#000000">DIGITO = &#39;1&#39; &#160;&#160;</text>
</g>
<!-- E_IMPAR&#45;&gt;E_PAR -->
<g id="edge3" class="edge transition">
<title>E_IMPAR&#45;&gt;E_PAR</title>
<path fill="none" stroke="#000000" d="M98.3285,-47.4061C114.7814,-55.5679 128.6454,-67.0994 120,-81 113.0131,-92.234 101.2411,-99.9683 89.2709,-105.2465"/>
<polygon fill="#000000" stroke="#000000" points="87.7609,-102.0785 79.716,-108.9728 90.3043,-108.6001 87.7609,-102.0785"/>
<text text-anchor="start" x="122" y="-72" font-family="Helvetica,sans-Serif" font-size="10.00" fill="#000000">DIGITO = &#39;1&#39; &#160;&#160;</text>
</g>
<!-- E_IMPAR&#45;&gt;E_IMPAR -->
<g id="edge4" class="edge transition">
<title>E_IMPAR&#45;&gt;E_IMPAR</title>
<path fill="none" stroke="#000000" d="M98.1626,-38.8747C110.3197,-38.8495 120,-37.2246 120,-34 120,-31.7831 115.4246,-30.3223 108.6144,-29.6176"/>
<polygon fill="#000000" stroke="#000000" points="108.3163,-26.0997 98.1626,-29.1253 107.9869,-33.092 108.3163,-26.0997"/>
<text text-anchor="start" x="120" y="-31" font-family="Helvetica,sans-Serif" font-size="10.00" fill="#000000">not (DIGITO = &#39;1&#39;) &#160;&#160;</text>
</g>
</g>
</svg>
