<?xml version="1.0" encoding="UTF-8" standalone="no"?>
<!DOCTYPE svg PUBLIC "-//W3C//DTD SVG 1.1//EN"
 "http://www.w3.org/Graphics/SVG/1.1/DTD/svg11.dtd">
<!-- Generated by graphviz version 2.40.1 (20161225.0304)
 -->
<!-- Title: state transitions Pages: 1 -->
<svg width="344pt" height="270pt"
 viewBox="0.00 0.00 344.09 270.00" xmlns="http://www.w3.org/2000/svg" xmlns:xlink="http://www.w3.org/1999/xlink">
<g id="graph0" class="graph" transform="scale(1 1) rotate(0) translate(4 266)">
<title>state transitions</title>
<polygon fill="#ffffff" stroke="transparent" points="-4,4 -4,-266 340.088,-266 340.088,4 -4,4"/>
<g id="clust1" class="cluster state regular">
<title>cluster_estado_siguiente</title>
<path fill="none" stroke="#000000" stroke-width="2" d="M20,-8C20,-8 284,-8 284,-8 290,-8 296,-14 296,-20 296,-20 296,-242 296,-242 296,-248 290,-254 284,-254 284,-254 20,-254 20,-254 14,-254 8,-248 8,-242 8,-242 8,-20 8,-20 8,-14 14,-8 20,-8"/>
<text text-anchor="start" x="106.6484" y="-235.2" font-family="Helvetica,sans-Serif" font-size="12.00" fill="#000000">estado_siguiente</text>
</g>
<!-- estado_siguiente -->
<!-- S_I -->
<g id="node2" class="node state regular">
<title>S_I</title>
<polygon fill="#ffffff" fill-opacity="0.003922" stroke="transparent" stroke-width="2" points="168,-216 112,-216 112,-180 168,-180 168,-216"/>
<text text-anchor="start" x="130.9958" y="-194.2" font-family="Helvetica,sans-Serif" font-size="12.00" fill="#000000">S_I</text>
<path fill="none" stroke="#000000" stroke-width="2" d="M124.3333,-181C124.3333,-181 155.6667,-181 155.6667,-181 161.3333,-181 167,-186.6667 167,-192.3333 167,-192.3333 167,-203.6667 167,-203.6667 167,-209.3333 161.3333,-215 155.6667,-215 155.6667,-215 124.3333,-215 124.3333,-215 118.6667,-215 113,-209.3333 113,-203.6667 113,-203.6667 113,-192.3333 113,-192.3333 113,-186.6667 118.6667,-181 124.3333,-181"/>
</g>
<!-- S_Am -->
<g id="node3" class="node state regular">
<title>S_Am</title>
<polygon fill="#ffffff" fill-opacity="0.003922" stroke="transparent" stroke-width="2" points="111,-134 55,-134 55,-98 111,-98 111,-134"/>
<text text-anchor="start" x="66.6644" y="-112.2" font-family="Helvetica,sans-Serif" font-size="12.00" fill="#000000">S_Am</text>
<path fill="none" stroke="#000000" stroke-width="2" d="M67.3333,-99C67.3333,-99 98.6667,-99 98.6667,-99 104.3333,-99 110,-104.6667 110,-110.3333 110,-110.3333 110,-121.6667 110,-121.6667 110,-127.3333 104.3333,-133 98.6667,-133 98.6667,-133 67.3333,-133 67.3333,-133 61.6667,-133 56,-127.3333 56,-121.6667 56,-121.6667 56,-110.3333 56,-110.3333 56,-104.6667 61.6667,-99 67.3333,-99"/>
</g>
<!-- S_I&#45;&gt;S_Am -->
<g id="edge1" class="edge transition">
<title>S_I&#45;&gt;S_Am</title>
<path fill="none" stroke="#000000" d="M115.1209,-179.7722C109.5588,-174.8102 104.0807,-169.1035 99.912,-163 96.0603,-157.3607 92.978,-150.7434 90.5561,-144.2834"/>
<polygon fill="#000000" stroke="#000000" points="93.7546,-142.8096 87.2784,-134.4246 87.1121,-145.0181 93.7546,-142.8096"/>
<text text-anchor="start" x="99" y="-154" font-family="Helvetica,sans-Serif" font-size="10.00" fill="#000000">A = &#39;1&#39; AND B = &#39;0&#39; &#160;&#160;</text>
</g>
<!-- S_Bm -->
<g id="node4" class="node state regular">
<title>S_Bm</title>
<polygon fill="#ffffff" fill-opacity="0.003922" stroke="transparent" stroke-width="2" points="201,-52 145,-52 145,-16 201,-16 201,-52"/>
<text text-anchor="start" x="156.6644" y="-30.2" font-family="Helvetica,sans-Serif" font-size="12.00" fill="#000000">S_Bm</text>
<path fill="none" stroke="#000000" stroke-width="2" d="M157.3333,-17C157.3333,-17 188.6667,-17 188.6667,-17 194.3333,-17 200,-22.6667 200,-28.3333 200,-28.3333 200,-39.6667 200,-39.6667 200,-45.3333 194.3333,-51 188.6667,-51 188.6667,-51 157.3333,-51 157.3333,-51 151.6667,-51 146,-45.3333 146,-39.6667 146,-39.6667 146,-28.3333 146,-28.3333 146,-22.6667 151.6667,-17 157.3333,-17"/>
</g>
<!-- S_I&#45;&gt;S_Bm -->
<g id="edge2" class="edge transition">
<title>S_I&#45;&gt;S_Bm</title>
<path fill="none" stroke="#000000" d="M168.063,-181.6772C176.2274,-176.2701 184.8615,-169.8636 192,-163 224.5527,-131.701 237.9728,-123.9249 252,-81 258.9401,-59.7626 234.6627,-47.6972 211.2364,-41.1235"/>
<polygon fill="#000000" stroke="#000000" points="211.8942,-37.6799 201.3422,-38.6316 210.1846,-44.4679 211.8942,-37.6799"/>
<text text-anchor="start" x="245" y="-113" font-family="Helvetica,sans-Serif" font-size="10.00" fill="#000000">A = &#39;0&#39; AND B = &#39;1&#39; &#160;&#160;</text>
</g>
<!-- S_Am&#45;&gt;S_Bm -->
<g id="edge3" class="edge transition">
<title>S_Am&#45;&gt;S_Bm</title>
<path fill="none" stroke="#000000" d="M61.4635,-97.5872C53.6448,-88.6761 48.2014,-77.9881 54.912,-69 64.5951,-56.0306 104.1213,-46.1607 134.8087,-40.2599"/>
<polygon fill="#000000" stroke="#000000" points="135.6223,-43.669 144.821,-38.4122 134.3519,-36.7852 135.6223,-43.669"/>
<text text-anchor="start" x="54" y="-72" font-family="Helvetica,sans-Serif" font-size="10.00" fill="#000000">A = &#39;0&#39; AND B = &#39;1&#39; &#160;&#160;</text>
</g>
<!-- S_Bm&#45;&gt;S_Am -->
<g id="edge4" class="edge transition">
<title>S_Bm&#45;&gt;S_Am</title>
<path fill="none" stroke="#000000" d="M165.9281,-52.0956C161.5523,-61.5616 155.1961,-72.8435 147,-81 139.3131,-88.6497 129.6077,-95.0979 120.0943,-100.2925"/>
<polygon fill="#000000" stroke="#000000" points="118.4158,-97.2197 111.1041,-104.8871 121.6014,-103.4528 118.4158,-97.2197"/>
<text text-anchor="start" x="156" y="-72" font-family="Helvetica,sans-Serif" font-size="10.00" fill="#000000">A = &#39;1&#39; AND B = &#39;0&#39; &#160;&#160;</text>
</g>
</g>
</svg>
