<?xml version="1.0" encoding="UTF-8" standalone="no"?>
<!DOCTYPE svg PUBLIC "-//W3C//DTD SVG 1.1//EN"
 "http://www.w3.org/Graphics/SVG/1.1/DTD/svg11.dtd">
<!-- Generated by graphviz version 2.40.1 (20161225.0304)
 -->
<!-- Title: state transitions Pages: 1 -->
<svg width="297pt" height="352pt"
 viewBox="0.00 0.00 296.94 352.00" xmlns="http://www.w3.org/2000/svg" xmlns:xlink="http://www.w3.org/1999/xlink">
<g id="graph0" class="graph" transform="scale(1 1) rotate(0) translate(4 348)">
<title>state transitions</title>
<polygon fill="#ffffff" stroke="transparent" points="-4,4 -4,-348 292.935,-348 292.935,4 -4,4"/>
<g id="clust1" class="cluster state regular">
<title>cluster_EST_SIG</title>
<path fill="none" stroke="#000000" stroke-width="2" d="M20,-8C20,-8 222,-8 222,-8 228,-8 234,-14 234,-20 234,-20 234,-324 234,-324 234,-330 228,-336 222,-336 222,-336 20,-336 20,-336 14,-336 8,-330 8,-324 8,-324 8,-20 8,-20 8,-14 14,-8 20,-8"/>
<text text-anchor="start" x="95.6602" y="-317.2" font-family="Helvetica,sans-Serif" font-size="12.00" fill="#000000">EST_SIG</text>
</g>
<!-- EST_SIG -->
<!-- A_1 -->
<g id="node2" class="node state regular">
<title>A_1</title>
<polygon fill="#ffffff" fill-opacity="0.003922" stroke="transparent" stroke-width="2" points="77,-298 21,-298 21,-262 77,-262 77,-298"/>
<text text-anchor="start" x="38.3278" y="-276.2" font-family="Helvetica,sans-Serif" font-size="12.00" fill="#000000">A_1</text>
<path fill="none" stroke="#000000" stroke-width="2" d="M33.3333,-263C33.3333,-263 64.6667,-263 64.6667,-263 70.3333,-263 76,-268.6667 76,-274.3333 76,-274.3333 76,-285.6667 76,-285.6667 76,-291.3333 70.3333,-297 64.6667,-297 64.6667,-297 33.3333,-297 33.3333,-297 27.6667,-297 22,-291.3333 22,-285.6667 22,-285.6667 22,-274.3333 22,-274.3333 22,-268.6667 27.6667,-263 33.3333,-263"/>
</g>
<!-- A_1&#45;&gt;A_1 -->
<g id="edge2" class="edge transition">
<title>A_1&#45;&gt;A_1</title>
<path fill="none" stroke="#000000" d="M77.0183,-284.8247C88.888,-285.1883 99,-283.5801 99,-280 99,-277.5387 94.2205,-276.0094 87.3762,-275.4121"/>
<polygon fill="#000000" stroke="#000000" points="87.0957,-271.9049 77.0183,-275.1753 86.9356,-278.903 87.0957,-271.9049"/>
<text text-anchor="start" x="99" y="-277" font-family="Helvetica,sans-Serif" font-size="10.00" fill="#000000">not (SENSOR = &#39;1&#39;) &#160;&#160;</text>
</g>
<!-- D -->
<g id="node3" class="node state regular">
<title>D</title>
<polygon fill="#ffffff" fill-opacity="0.003922" stroke="transparent" stroke-width="2" points="72,-216 16,-216 16,-180 72,-180 72,-216"/>
<text text-anchor="start" x="39.6686" y="-194.2" font-family="Helvetica,sans-Serif" font-size="12.00" fill="#000000">D</text>
<path fill="none" stroke="#000000" stroke-width="2" d="M28.3333,-181C28.3333,-181 59.6667,-181 59.6667,-181 65.3333,-181 71,-186.6667 71,-192.3333 71,-192.3333 71,-203.6667 71,-203.6667 71,-209.3333 65.3333,-215 59.6667,-215 59.6667,-215 28.3333,-215 28.3333,-215 22.6667,-215 17,-209.3333 17,-203.6667 17,-203.6667 17,-192.3333 17,-192.3333 17,-186.6667 22.6667,-181 28.3333,-181"/>
</g>
<!-- A_1&#45;&gt;D -->
<g id="edge1" class="edge transition">
<title>A_1&#45;&gt;D</title>
<path fill="none" stroke="#000000" d="M47.8903,-261.8015C47.256,-251.3976 46.4464,-238.1215 45.7303,-226.3768"/>
<polygon fill="#000000" stroke="#000000" points="49.2088,-225.916 45.1066,-216.1476 42.2218,-226.3421 49.2088,-225.916"/>
<text text-anchor="start" x="46" y="-236" font-family="Helvetica,sans-Serif" font-size="10.00" fill="#000000">SENSOR = &#39;1&#39; &#160;&#160;</text>
</g>
<!-- D&#45;&gt;D -->
<g id="edge4" class="edge transition">
<title>D&#45;&gt;D</title>
<path fill="none" stroke="#000000" d="M72.0183,-202.8247C83.888,-203.1883 94,-201.5801 94,-198 94,-195.5387 89.2205,-194.0094 82.3762,-193.4121"/>
<polygon fill="#000000" stroke="#000000" points="82.0957,-189.9049 72.0183,-193.1753 81.9356,-196.903 82.0957,-189.9049"/>
<text text-anchor="start" x="94" y="-195" font-family="Helvetica,sans-Serif" font-size="10.00" fill="#000000">not (SENSOR = &#39;0&#39;) &#160;&#160;</text>
</g>
<!-- A_2 -->
<g id="node4" class="node state regular">
<title>A_2</title>
<polygon fill="#ffffff" fill-opacity="0.003922" stroke="transparent" stroke-width="2" points="72,-134 16,-134 16,-98 72,-98 72,-134"/>
<text text-anchor="start" x="33.3278" y="-112.2" font-family="Helvetica,sans-Serif" font-size="12.00" fill="#000000">A_2</text>
<path fill="none" stroke="#000000" stroke-width="2" d="M28.3333,-99C28.3333,-99 59.6667,-99 59.6667,-99 65.3333,-99 71,-104.6667 71,-110.3333 71,-110.3333 71,-121.6667 71,-121.6667 71,-127.3333 65.3333,-133 59.6667,-133 59.6667,-133 28.3333,-133 28.3333,-133 22.6667,-133 17,-127.3333 17,-121.6667 17,-121.6667 17,-110.3333 17,-110.3333 17,-104.6667 22.6667,-99 28.3333,-99"/>
</g>
<!-- D&#45;&gt;A_2 -->
<g id="edge3" class="edge transition">
<title>D&#45;&gt;A_2</title>
<path fill="none" stroke="#000000" d="M44,-179.8015C44,-169.3976 44,-156.1215 44,-144.3768"/>
<polygon fill="#000000" stroke="#000000" points="47.5001,-144.1476 44,-134.1476 40.5001,-144.1476 47.5001,-144.1476"/>
<text text-anchor="start" x="44" y="-154" font-family="Helvetica,sans-Serif" font-size="10.00" fill="#000000">SENSOR = &#39;0&#39; &#160;&#160;</text>
</g>
<!-- A_2&#45;&gt;A_2 -->
<g id="edge6" class="edge transition">
<title>A_2&#45;&gt;A_2</title>
<path fill="none" stroke="#000000" d="M72.0183,-120.8247C83.888,-121.1883 94,-119.5801 94,-116 94,-113.5387 89.2205,-112.0094 82.3762,-111.4121"/>
<polygon fill="#000000" stroke="#000000" points="82.0957,-107.9049 72.0183,-111.1753 81.9356,-114.903 82.0957,-107.9049"/>
<text text-anchor="start" x="94" y="-113" font-family="Helvetica,sans-Serif" font-size="10.00" fill="#000000">not (SENSOR = &#39;1&#39;) &#160;&#160;</text>
</g>
<!-- I -->
<g id="node5" class="node state regular">
<title>I</title>
<polygon fill="#ffffff" fill-opacity="0.003922" stroke="transparent" stroke-width="2" points="93,-52 37,-52 37,-16 93,-16 93,-52"/>
<text text-anchor="start" x="63.3326" y="-30.2" font-family="Helvetica,sans-Serif" font-size="12.00" fill="#000000">I</text>
<path fill="none" stroke="#000000" stroke-width="2" d="M49.3333,-17C49.3333,-17 80.6667,-17 80.6667,-17 86.3333,-17 92,-22.6667 92,-28.3333 92,-28.3333 92,-39.6667 92,-39.6667 92,-45.3333 86.3333,-51 80.6667,-51 80.6667,-51 49.3333,-51 49.3333,-51 43.6667,-51 38,-45.3333 38,-39.6667 38,-39.6667 38,-28.3333 38,-28.3333 38,-22.6667 43.6667,-17 49.3333,-17"/>
</g>
<!-- A_2&#45;&gt;I -->
<g id="edge5" class="edge transition">
<title>A_2&#45;&gt;I</title>
<path fill="none" stroke="#000000" d="M48.6606,-97.8015C51.3522,-87.2915 54.7944,-73.8503 57.8247,-62.0177"/>
<polygon fill="#000000" stroke="#000000" points="61.262,-62.7033 60.3524,-52.1476 54.4809,-60.9666 61.262,-62.7033"/>
<text text-anchor="start" x="55" y="-72" font-family="Helvetica,sans-Serif" font-size="10.00" fill="#000000">SENSOR = &#39;1&#39; &#160;&#160;</text>
</g>
<!-- I&#45;&gt;A_1 -->
<g id="edge7" class="edge transition">
<title>I&#45;&gt;A_1</title>
<path fill="none" stroke="#000000" d="M93.0921,-38.7639C124.3924,-45.7364 173.5445,-62.0372 196,-98 223.7766,-142.4846 224.7446,-172.1346 196,-216 171.9782,-252.6581 121.8953,-268.4335 86.8976,-275.1467"/>
<polygon fill="#000000" stroke="#000000" points="86.2584,-271.7053 77.014,-276.8812 87.4684,-278.5999 86.2584,-271.7053"/>
<text text-anchor="start" x="217" y="-154" font-family="Helvetica,sans-Serif" font-size="10.00" fill="#000000">SENSOR = &#39;0&#39; &#160;&#160;</text>
</g>
<!-- I&#45;&gt;I -->
<g id="edge8" class="edge transition">
<title>I&#45;&gt;I</title>
<path fill="none" stroke="#000000" d="M93.0183,-38.8247C104.888,-39.1883 115,-37.5801 115,-34 115,-31.5387 110.2205,-30.0094 103.3762,-29.4121"/>
<polygon fill="#000000" stroke="#000000" points="103.0957,-25.9049 93.0183,-29.1753 102.9356,-32.903 103.0957,-25.9049"/>
<text text-anchor="start" x="115" y="-31" font-family="Helvetica,sans-Serif" font-size="10.00" fill="#000000">not (SENSOR = &#39;0&#39;) &#160;&#160;</text>
</g>
</g>
</svg>
